<svg width="427" height="357" viewBox="0 0 427 357" fill="none" xmlns="http://www.w3.org/2000/svg">
<path d="M30.9876 294.648L24.5476 249.176H24.2849L17.9769 294.648H30.9876ZM15.2169 233.143H34.7983L49.7809 325.138H35.3249L32.6956 306.872V307.132H16.2689L13.6396 325.138H0.235596L15.2169 233.143Z" fill="#231F20"/>
<path d="M60.9505 320.474C57.2705 316.487 55.4305 310.771 55.4305 303.323V254.961C55.4305 247.513 57.2705 241.797 60.9505 237.81C64.6305 233.823 69.9732 231.831 76.9839 231.831C83.9919 231.831 89.3372 233.823 93.0172 237.81C96.6972 241.797 98.5359 247.513 98.5359 254.961V262.846H84.8692V254.039C84.8692 247.995 82.3719 244.971 77.3772 244.971C72.3839 244.971 69.8865 247.995 69.8865 254.039V304.375C69.8865 310.334 72.3839 313.31 77.3772 313.31C82.3719 313.31 84.8692 310.334 84.8692 304.375V286.37H77.6412V273.226H98.5359V303.323C98.5359 310.771 96.6972 316.487 93.0172 320.474C89.3372 324.461 83.9919 326.453 76.9839 326.453C69.9732 326.453 64.6305 324.461 60.9505 320.474Z" fill="#231F20"/>
<path d="M112.86 320.474C109.18 316.487 107.34 310.771 107.34 303.323V233.143H121.797V304.375C121.797 307.529 122.431 309.807 123.703 311.209C124.971 312.61 126.791 313.31 129.156 313.31C131.523 313.31 133.339 312.61 134.609 311.209C135.88 309.807 136.516 307.529 136.516 304.375V233.143H150.447V303.323C150.447 310.771 148.607 316.487 144.927 320.474C141.247 324.461 135.901 326.453 128.893 326.453C121.883 326.453 116.54 324.461 112.86 320.474Z" fill="#231F20"/>
<path d="M187.374 294.648L180.934 249.176H180.672L174.364 294.648H187.374ZM171.604 233.143H191.185L206.168 325.138H191.712L189.082 306.872V307.132H172.656L170.026 325.138H156.622L171.604 233.143Z" fill="#231F20"/>
<path d="M261.098 294.648L254.658 249.176H254.396L248.088 294.648H261.098ZM245.328 233.143H264.909L279.892 325.138H265.436L262.806 306.872V307.132H246.38L243.75 325.138H230.346L245.328 233.143Z" fill="#231F20"/>
<path d="M284.489 312.26L311.298 246.287H285.804V233.143H326.806V246.023L299.997 311.998H326.806V325.138H284.489V312.26Z" fill="#231F20"/>
<path d="M339.949 320.474C336.269 316.487 334.429 310.771 334.429 303.323V233.143H348.886V304.375C348.886 307.529 349.519 309.807 350.791 311.209C352.059 312.61 353.879 313.31 356.245 313.31C358.611 313.31 360.427 312.61 361.698 311.209C362.969 309.807 363.605 307.529 363.605 304.375V233.143H377.535V303.323C377.535 310.771 375.695 316.487 372.015 320.474C368.335 324.461 362.99 326.453 355.982 326.453C348.971 326.453 343.629 324.461 339.949 320.474Z" fill="#231F20"/>
<path d="M387.785 233.143H402.241V311.998H426.029V325.138H387.785V233.143Z" fill="#231F20"/>
<path d="M35.3451 340.518C36.7504 339.081 38.5384 338.362 40.7091 338.362C43.6144 338.362 45.7384 339.325 47.0824 341.253C47.8237 342.333 48.2224 343.42 48.2771 344.508H44.6304C44.3984 343.672 44.0997 343.04 43.7371 342.612C43.0877 341.854 42.1237 341.477 40.8491 341.477C39.5491 341.477 38.5251 342.01 37.7744 343.081C37.0251 344.152 36.6504 345.664 36.6504 347.622C36.6504 349.578 37.0451 351.045 37.8371 352.021C38.6277 352.994 39.6344 353.482 40.8544 353.482C42.1051 353.482 43.0584 353.065 43.7144 352.226C44.0771 351.778 44.3784 351.101 44.6184 350.204H48.2411C47.9291 352.104 47.1304 353.652 45.8451 354.844C44.5611 356.037 42.9157 356.633 40.9091 356.633C38.4251 356.633 36.4731 355.825 35.0517 354.216C33.6304 352.6 32.9197 350.38 32.9197 347.562C32.9197 344.516 33.7291 342.166 35.3451 340.518" fill="#231F20"/>
<path d="M57.2741 349.552H61.7435L59.5395 342.685L57.2741 349.552ZM57.5141 338.695H61.6408L67.8155 356.145H63.8608L62.7088 352.56H56.2821L55.0995 356.145H51.2835L57.5141 338.695Z" fill="#231F20"/>
<path d="M82.946 338.695H88.194V356.146H84.7954V344.341C84.7954 344.002 84.7994 343.526 84.8074 342.914C84.8154 342.305 84.8194 341.831 84.8194 341.501L81.5114 356.146H77.9674L74.6834 341.501C74.6834 341.831 74.6874 342.305 74.6954 342.914C74.7034 343.526 74.7074 344.002 74.7074 344.341V356.146H71.3087V338.695H76.6154L79.7927 352.417L82.946 338.695Z" fill="#231F20"/>
<path d="M96.228 356.145H92.6053V338.695H96.228V356.145Z" fill="#231F20"/>
<path d="M100.913 338.695H104.735L111.663 350.862V338.695H115.062V356.146H111.415L104.311 343.763V356.146H100.913V338.695Z" fill="#231F20"/>
<path d="M130.977 351.943C131.825 350.877 132.251 349.361 132.251 347.396C132.251 345.44 131.825 343.924 130.977 342.857C130.128 341.787 128.981 341.252 127.537 341.252C126.093 341.252 124.941 341.784 124.08 342.849C123.22 343.916 122.789 345.432 122.789 347.396C122.789 349.361 123.22 350.877 124.08 351.943C124.941 353.008 126.093 353.541 127.537 353.541C128.981 353.541 130.128 353.008 130.977 351.943ZM133.256 354.596C131.939 355.953 130.032 356.633 127.537 356.633C125.043 356.633 123.137 355.953 121.819 354.596C120.051 352.929 119.167 350.531 119.167 347.396C119.167 344.2 120.051 341.8 121.819 340.197C123.137 338.841 125.043 338.161 127.537 338.161C130.032 338.161 131.939 338.841 133.256 340.197C135.016 341.8 135.896 344.2 135.896 347.396C135.896 350.531 135.016 352.929 133.256 354.596" fill="#231F20"/>
<path d="M142.641 350.76C142.754 351.558 142.975 352.154 143.306 352.547C143.91 353.266 144.946 353.624 146.413 353.624C147.291 353.624 148.005 353.528 148.553 353.342C149.593 352.976 150.113 352.302 150.113 351.315C150.113 350.739 149.858 350.294 149.349 349.976C148.838 349.67 148.031 349.399 146.925 349.162L145.035 348.747C143.178 348.336 141.903 347.891 141.209 347.408C140.031 346.604 139.445 345.344 139.445 343.63C139.445 342.067 140.019 340.771 141.17 339.736C142.321 338.703 144.01 338.184 146.241 338.184C148.102 338.184 149.69 338.672 151.005 339.648C152.319 340.622 153.007 342.036 153.073 343.894H149.567C149.502 342.842 149.033 342.096 148.159 341.654C147.577 341.362 146.853 341.216 145.987 341.216C145.023 341.216 144.255 341.406 143.681 341.784C143.106 342.164 142.818 342.692 142.818 343.37C142.818 343.995 143.102 344.46 143.669 344.768C144.033 344.974 144.806 345.214 145.987 345.49L149.05 346.214C150.391 346.528 151.398 346.951 152.069 347.479C153.109 348.299 153.629 349.49 153.629 351.044C153.629 352.638 153.013 353.96 151.779 355.015C150.547 356.07 148.806 356.596 146.557 356.596C144.258 356.596 142.451 356.078 141.135 355.039C139.818 354.003 139.161 352.575 139.161 350.76H142.641Z" fill="#231F20"/>
<path d="M175.122 338.695H179.254L173.416 349.602V356.146H169.77V349.602L163.732 338.695H168.03L171.652 346.294L175.122 338.695Z" fill="#231F20"/>
<path d="M201.476 351.943C202.324 350.877 202.749 349.361 202.749 347.396C202.749 345.44 202.324 343.924 201.476 342.857C200.627 341.787 199.48 341.252 198.036 341.252C196.592 341.252 195.44 341.784 194.579 342.849C193.719 343.916 193.288 345.432 193.288 347.396C193.288 349.361 193.719 350.877 194.579 351.943C195.44 353.008 196.592 353.541 198.036 353.541C199.48 353.541 200.627 353.008 201.476 351.943ZM203.755 354.596C202.437 355.953 200.531 356.633 198.036 356.633C195.541 356.633 193.636 355.953 192.317 354.596C190.549 352.929 189.665 350.531 189.665 347.396C189.665 344.2 190.549 341.8 192.317 340.197C193.636 338.841 195.541 338.161 198.036 338.161C200.531 338.161 202.437 338.841 203.755 340.197C205.515 341.8 206.395 344.2 206.395 347.396C206.395 350.531 205.515 352.929 203.755 354.596" fill="#231F20"/>
<path d="M214.052 348.461V353.114H218.289C219.045 353.114 219.635 353.013 220.056 352.808C220.821 352.43 221.203 351.704 221.203 350.63C221.203 349.721 220.832 349.1 220.092 348.758C219.677 348.568 219.096 348.472 218.348 348.461H214.052ZM214.052 341.724V345.573H218.293C219.052 345.573 219.667 345.43 220.139 345.141C220.612 344.854 220.848 344.341 220.848 343.606C220.848 342.794 220.536 342.258 219.911 341.997C219.372 341.816 218.684 341.724 217.848 341.724H214.052ZM223.528 340.552C224.061 341.294 224.329 342.182 224.329 343.216C224.329 344.284 224.06 345.138 223.521 345.786C223.22 346.149 222.776 346.482 222.191 346.781C223.08 347.104 223.752 347.617 224.205 348.321C224.659 349.024 224.885 349.876 224.885 350.877C224.885 351.912 224.627 352.838 224.108 353.658C223.779 354.206 223.367 354.661 222.872 355.034C222.316 355.461 221.659 355.753 220.901 355.909C220.143 356.068 219.321 356.146 218.435 356.146H210.571V338.696H219.005C221.133 338.726 222.64 339.346 223.528 340.552Z" fill="#231F20"/>
<path d="M233.004 341.724V346.415H236.928C237.708 346.415 238.292 346.32 238.683 346.131C239.372 345.8 239.717 345.143 239.717 344.164C239.717 343.107 239.384 342.396 238.716 342.033C238.341 341.828 237.78 341.724 237.029 341.724H233.004ZM240.541 339.143C241.184 339.419 241.728 339.828 242.175 340.364C242.544 340.805 242.837 341.295 243.052 341.831C243.268 342.369 243.376 342.979 243.376 343.667C243.376 344.495 243.167 345.309 242.748 346.112C242.329 346.915 241.639 347.479 240.676 347.809C241.481 348.136 242.052 348.593 242.387 349.191C242.723 349.787 242.891 350.696 242.891 351.919V353.091C242.891 353.888 242.921 354.429 242.987 354.713C243.083 355.164 243.307 355.495 243.66 355.708V356.145H239.635C239.524 355.76 239.445 355.448 239.397 355.211C239.303 354.721 239.252 354.221 239.244 353.708L239.22 352.085C239.204 350.972 239.012 350.232 238.643 349.86C238.273 349.489 237.581 349.303 236.565 349.303H233.004V356.145H229.44V338.696H237.787C238.98 338.719 239.899 338.867 240.541 339.143Z" fill="#231F20"/>
<path d="M252.953 349.552H257.422L255.218 342.685L252.953 349.552ZM253.193 338.695H257.32L263.494 356.145H259.54L258.388 352.56H251.961L250.778 356.145H246.962L253.193 338.695Z" fill="#231F20"/>
<path d="M269.676 350.76C269.789 351.558 270.01 352.154 270.341 352.547C270.945 353.266 271.981 353.624 273.448 353.624C274.326 353.624 275.04 353.528 275.588 353.342C276.628 352.976 277.148 352.302 277.148 351.315C277.148 350.739 276.893 350.294 276.384 349.976C275.873 349.67 275.066 349.399 273.96 349.162L272.07 348.747C270.213 348.336 268.938 347.891 268.244 347.408C267.066 346.604 266.48 345.344 266.48 343.63C266.48 342.067 267.054 340.771 268.205 339.736C269.356 338.703 271.045 338.184 273.276 338.184C275.137 338.184 276.725 338.672 278.04 339.648C279.354 340.622 280.042 342.036 280.108 343.894H276.602C276.537 342.842 276.068 342.096 275.194 341.654C274.612 341.362 273.888 341.216 273.022 341.216C272.058 341.216 271.29 341.406 270.716 341.784C270.141 342.164 269.853 342.692 269.853 343.37C269.853 343.995 270.137 344.46 270.704 344.768C271.068 344.974 271.841 345.214 273.022 345.49L276.085 346.214C277.426 346.528 278.433 346.951 279.104 347.479C280.144 348.299 280.664 349.49 280.664 351.044C280.664 352.638 280.048 353.96 278.814 355.015C277.582 356.07 275.841 356.596 273.592 356.596C271.293 356.596 269.486 356.078 268.17 355.039C266.853 354.003 266.196 352.575 266.196 350.76H269.676Z" fill="#231F20"/>
<path d="M294.294 340.518C295.699 339.081 297.487 338.362 299.658 338.362C302.563 338.362 304.687 339.325 306.031 341.253C306.772 342.333 307.171 343.42 307.226 344.508H303.579C303.347 343.672 303.048 343.04 302.686 342.612C302.036 341.854 301.072 341.477 299.798 341.477C298.498 341.477 297.474 342.01 296.723 343.081C295.974 344.152 295.599 345.664 295.599 347.622C295.599 349.578 295.994 351.045 296.786 352.021C297.576 352.994 298.583 353.482 299.803 353.482C301.054 353.482 302.007 353.065 302.663 352.226C303.026 351.778 303.327 351.101 303.567 350.204H307.19C306.878 352.104 306.079 353.652 304.794 354.844C303.51 356.037 301.864 356.633 299.858 356.633C297.374 356.633 295.422 355.825 294 354.216C292.579 352.6 291.868 350.38 291.868 347.562C291.868 344.516 292.678 342.166 294.294 340.518" fill="#231F20"/>
<path d="M314.799 356.145H311.176V338.695H314.799V356.145Z" fill="#231F20"/>
<path d="M329.755 338.695H333.544L327.593 356.146H324.148L318.247 338.695H322.141L325.931 351.943L329.755 338.695Z" fill="#231F20"/>
<path d="M340.376 356.145H336.753V338.695H340.376V356.145Z" fill="#231F20"/>
<path d="M345.12 338.695H348.767V353.007H357.482V356.146H345.12V338.695Z" fill="#231F20"/>
<path d="M374.171 341.784H364.936V345.489H373.414V348.521H364.936V353.008H374.598V356.145H361.372V338.696H374.171V341.784Z" fill="#231F20"/>
<path d="M381.402 350.76C381.515 351.558 381.736 352.154 382.067 352.547C382.671 353.266 383.707 353.624 385.174 353.624C386.052 353.624 386.766 353.528 387.314 353.342C388.354 352.976 388.874 352.302 388.874 351.315C388.874 350.739 388.619 350.294 388.11 349.976C387.599 349.67 386.792 349.399 385.686 349.162L383.796 348.747C381.939 348.336 380.664 347.891 379.97 347.408C378.792 346.604 378.206 345.344 378.206 343.63C378.206 342.067 378.78 340.771 379.931 339.736C381.082 338.703 382.771 338.184 385.002 338.184C386.863 338.184 388.451 338.672 389.766 339.648C391.08 340.622 391.768 342.036 391.834 343.894H388.328C388.263 342.842 387.794 342.096 386.92 341.654C386.338 341.362 385.614 341.216 384.748 341.216C383.784 341.216 383.016 341.406 382.442 341.784C381.867 342.164 381.579 342.692 381.579 343.37C381.579 343.995 381.863 344.46 382.43 344.768C382.794 344.974 383.567 345.214 384.748 345.49L387.811 346.214C389.152 346.528 390.159 346.951 390.83 347.479C391.87 348.299 392.39 349.49 392.39 351.044C392.39 352.638 391.774 353.96 390.54 355.015C389.308 356.07 387.567 356.596 385.318 356.596C383.019 356.596 381.212 356.078 379.896 355.039C378.579 354.003 377.922 352.575 377.922 350.76H381.402Z" fill="#231F20"/>
<path d="M293.995 86.5866C301.531 94.1692 308.355 102.117 314.51 110.405V0.198575H105.253V0.515907C116.258 2.27057 127.227 4.3399 138.137 6.87457C196.705 20.4932 250.763 43.0852 293.995 86.5866Z" fill="#28AAE1"/>
<path d="M133.628 75.127C124.47 67.3923 114.992 60.2523 105.253 53.595V209.459H214.017C213.374 208.386 212.888 207.042 212.578 205.29C203.296 151.618 174.4 109.562 133.628 75.127Z" fill="#28AAE1"/>
<path d="M314.51 110.406C308.355 102.118 301.532 94.1696 293.995 86.587C250.763 43.0856 196.704 20.4923 138.138 6.87496C127.228 4.34029 116.258 2.26963 105.252 0.516299V53.595C114.991 60.2523 124.47 67.3923 133.627 75.127C174.399 109.562 203.296 151.618 212.579 205.29C212.887 207.042 213.374 208.386 214.016 209.459H314.51V110.406Z" fill="#CDEBF3"/>
<path d="M289.178 209.138H302.804C302.046 206.499 300.675 201.953 299.027 197.493C296.57 190.662 293.634 184.073 293.634 184.073L282.427 188.547C282.427 188.547 284.944 194.955 286.962 201.487C287.812 204.201 288.572 206.889 289.178 209.138Z" fill="#28AAE1"/>
<path d="M273.495 146.287L264.758 151.435C264.758 151.435 268.222 157.439 271.326 163.619C274.494 169.772 277.266 176.09 277.266 176.09L287.651 171.303C287.651 171.303 284.459 164.851 280.878 158.618C277.366 152.343 273.495 146.287 273.495 146.287Z" fill="#28AAE1"/>
<path d="M247.954 112.062L241.558 117.234C241.558 117.234 242.64 118.598 244.264 120.641C245.814 122.734 247.88 125.534 249.95 128.329C251.916 131.19 253.88 134.057 255.359 136.205C256.764 138.393 257.7 139.853 257.7 139.853L265.654 134.633C265.654 134.633 264.618 133.173 263.063 130.975C261.439 128.823 259.272 125.963 257.114 123.102C254.852 120.315 252.592 117.531 250.895 115.442C249.132 113.417 247.954 112.062 247.954 112.062Z" fill="#28AAE1"/>
<path d="M217.697 82.0104L213.429 86.6638C213.429 86.6678 214.732 87.8318 216.584 89.6918C218.441 91.5438 220.977 93.9491 223.403 96.4638C225.787 99.0104 228.171 101.554 229.959 103.469C231.68 105.436 232.829 106.749 232.829 106.749L238.497 101.69C238.497 101.69 237.259 100.396 235.397 98.4558C233.477 96.5771 230.915 94.0771 228.351 91.5718C225.748 89.1184 223.041 86.7691 221.06 84.9544C219.08 83.1424 217.697 82.0104 217.697 82.0104Z" fill="#28AAE1"/>
<path d="M183.35 56.8607L180.882 60.5167C180.882 60.5167 182.334 61.5114 184.505 63.0034C186.673 64.5007 189.432 66.6834 192.248 68.778C195.088 70.85 197.793 73.0834 199.804 74.778C201.829 76.45 203.178 77.57 203.178 77.57L206.812 73.194C206.812 73.194 205.385 72.118 203.244 70.4994C201.116 68.8687 198.261 66.718 195.276 64.738C192.316 62.738 189.416 60.6474 187.144 59.2207C184.868 57.8047 183.35 56.8607 183.35 56.8607Z" fill="#28AAE1"/>
<path d="M145.861 36.8808L144.757 39.1382C144.757 39.1382 151.128 42.2102 157.228 45.7622C160.315 47.4835 163.408 49.1715 165.619 50.6248C167.868 52.0155 169.364 52.9462 169.364 52.9462L171.332 49.7115C171.332 49.7115 169.775 48.8395 167.441 47.5302C165.139 46.1702 161.928 44.5942 158.737 43.0022C152.415 39.6928 145.859 36.8835 145.861 36.8808Z" fill="#28AAE1"/>
<path d="M106.155 22.0626L105.956 22.6519C105.956 22.6519 106.378 22.7906 107.114 23.0372C107.854 23.2719 108.899 23.6452 110.132 24.1399C112.615 25.0972 115.919 26.3772 119.227 27.6532C122.556 28.8732 125.792 30.3239 128.216 31.4079C130.648 32.4772 132.264 33.1932 132.264 33.1932L133.016 31.4559C133.016 31.4559 131.358 30.8119 128.868 29.8452C126.383 28.8666 123.075 27.5559 119.676 26.4812C116.306 25.3492 112.932 24.2159 110.404 23.3652C109.147 22.9266 108.083 22.5959 107.33 22.3999C106.582 22.1839 106.155 22.0626 106.155 22.0626Z" fill="#28AAE1"/>
</svg>
