<svg width="195" height="164" viewBox="0 0 195 164" fill="none" xmlns="http://www.w3.org/2000/svg">
<path d="M14.084 134.845L11.136 114.021H11.0133L8.12533 134.845H14.084ZM6.86267 106.678H15.8293L22.6907 148.809H16.0707L14.868 140.442V140.564H7.344L6.13867 148.809H0L6.86267 106.678Z" fill="white"/>
<path d="M27.8078 146.672C26.1198 144.847 25.2798 142.229 25.2798 138.817V116.669C25.2798 113.259 26.1198 110.643 27.8078 108.815C29.4931 106.989 31.9385 106.077 35.1491 106.077C38.3598 106.077 40.8078 106.989 42.4931 108.815C44.1771 110.643 45.0185 113.259 45.0185 116.669V120.281H38.7611V116.249C38.7611 113.479 37.6171 112.095 35.3291 112.095C33.0425 112.095 31.8985 113.479 31.8985 116.249V139.3C31.8985 142.029 33.0425 143.392 35.3291 143.392C37.6171 143.392 38.7611 142.029 38.7611 139.3V131.053H35.4505V125.035H45.0185V138.817C45.0185 142.229 44.1771 144.847 42.4931 146.672C40.8078 148.499 38.3598 149.411 35.1491 149.411C31.9385 149.411 29.4931 148.499 27.8078 146.672Z" fill="white"/>
<path d="M51.5813 146.672C49.8933 144.847 49.0533 142.229 49.0533 138.817V106.679H55.672V139.3C55.672 140.744 55.964 141.788 56.5453 142.428C57.1253 143.072 57.9586 143.392 59.0426 143.392C60.1253 143.392 60.9586 143.072 61.54 142.428C62.1226 141.788 62.4146 140.744 62.4146 139.3V106.679H68.792V138.817C68.792 142.229 67.9506 144.847 66.2666 146.672C64.5813 148.499 62.1333 149.411 58.9226 149.411C55.712 149.411 53.2666 148.499 51.5813 146.672Z" fill="white"/>
<path d="M85.7037 134.845L82.7557 114.021H82.633L79.745 134.845H85.7037ZM78.4824 106.678H87.449L94.3104 148.809H87.6904L86.4877 140.442V140.564H78.9637L77.7584 148.809H71.6197L78.4824 106.678Z" fill="white"/>
<path d="M119.467 134.845L116.516 114.021H116.396L113.508 134.845H119.467ZM112.243 106.678H121.212L128.071 148.809H121.451L120.248 140.442V140.564H112.724L111.521 148.809H105.383L112.243 106.678Z" fill="white"/>
<path d="M130.178 142.91L142.456 112.698H130.779V106.678H149.558V112.577L137.279 142.79H149.558V148.809H130.178V142.91Z" fill="white"/>
<path d="M155.576 146.672C153.891 144.847 153.048 142.229 153.048 138.817V106.679H159.669V139.3C159.669 140.744 159.959 141.788 160.543 142.428C161.123 143.072 161.956 143.392 163.04 143.392C164.123 143.392 164.953 143.072 165.537 142.428C166.117 141.788 166.409 140.744 166.409 139.3V106.679H172.789V138.817C172.789 142.229 171.945 144.847 170.261 146.672C168.576 148.499 166.128 149.411 162.92 149.411C159.709 149.411 157.261 148.499 155.576 146.672Z" fill="white"/>
<path d="M177.482 106.678H184.105V142.79H194.998V148.809H177.482V106.678Z" fill="white"/>
<path d="M16.0812 155.85C16.7239 155.193 17.5439 154.864 18.5386 154.864C19.8692 154.864 20.8412 155.305 21.4559 156.186C21.7959 156.682 21.9786 157.178 22.0026 157.677H20.3332C20.2266 157.294 20.0906 157.005 19.9239 156.81C19.6266 156.464 19.1852 156.289 18.6026 156.289C18.0066 156.289 17.5372 156.536 17.1946 157.025C16.8506 157.514 16.6786 158.208 16.6786 159.104C16.6786 160 16.8599 160.672 17.2212 161.118C17.5852 161.565 18.0452 161.788 18.6052 161.788C19.1759 161.788 19.6132 161.597 19.9146 161.213C20.0799 161.006 20.2186 160.698 20.3279 160.286H21.9879C21.8439 161.157 21.4786 161.866 20.8892 162.412C20.3012 162.957 19.5492 163.23 18.6292 163.23C17.4919 163.23 16.5986 162.862 15.9466 162.124C15.2959 161.382 14.9706 160.368 14.9706 159.077C14.9706 157.681 15.3399 156.605 16.0812 155.85Z" fill="white"/>
<path d="M26.123 159.987H28.1697L27.1604 156.843L26.123 159.987ZM26.2337 155.015H28.123L30.951 163.008H29.1404L28.6124 161.364H25.6684L25.127 163.008H23.3804L26.2337 155.015Z" fill="white"/>
<path d="M37.8807 155.016H40.2834V163.008H38.7274V157.601C38.7274 157.446 38.7287 157.229 38.7327 156.948C38.7367 156.668 38.7381 156.452 38.7381 156.301L37.2234 163.008H35.6007L34.0967 156.301C34.0967 156.452 34.0981 156.668 34.1021 156.948C34.1061 157.229 34.1074 157.446 34.1074 157.601V163.008H32.5514V155.016H34.9807L36.4367 161.3L37.8807 155.016Z" fill="white"/>
<path d="M43.9629 163.007H42.3042V155.015H43.9629V163.007Z" fill="white"/>
<path d="M46.1072 155.016H47.8566L51.0299 160.589V155.016H52.5859V163.008H50.9166L47.6632 157.337V163.008H46.1072V155.016Z" fill="white"/>
<path d="M59.8755 161.083C60.2635 160.595 60.4582 159.901 60.4582 159.001C60.4582 158.105 60.2635 157.411 59.8755 156.922C59.4862 156.431 58.9609 156.186 58.2995 156.186C57.6382 156.186 57.1102 156.431 56.7169 156.918C56.3222 157.406 56.1249 158.101 56.1249 159.001C56.1249 159.901 56.3222 160.595 56.7169 161.083C57.1102 161.57 57.6382 161.815 58.2995 161.815C58.9609 161.815 59.4862 161.57 59.8755 161.083V161.083ZM60.9182 162.297C60.3142 162.919 59.4422 163.23 58.2995 163.23C57.1569 163.23 56.2849 162.919 55.6809 162.297C54.8702 161.535 54.4662 160.437 54.4662 159.001C54.4662 157.537 54.8702 156.438 55.6809 155.705C56.2849 155.082 57.1569 154.771 58.2995 154.771C59.4422 154.771 60.3142 155.082 60.9182 155.705C61.7249 156.438 62.1275 157.537 62.1275 159.001C62.1275 160.437 61.7249 161.535 60.9182 162.297" fill="white"/>
<path d="M65.2167 160.54C65.2687 160.906 65.37 161.179 65.522 161.359C65.7994 161.688 66.2727 161.852 66.9447 161.852C67.3474 161.852 67.674 161.81 67.9234 161.723C68.4007 161.556 68.638 161.247 68.638 160.795C68.638 160.531 68.522 160.327 68.2887 160.182C68.0554 160.042 67.686 159.916 67.1794 159.808L66.3127 159.619C65.4634 159.431 64.878 159.227 64.5607 159.007C64.022 158.638 63.7527 158.062 63.7527 157.276C63.7527 156.562 64.0167 155.966 64.5434 155.492C65.07 155.019 65.8447 154.783 66.8647 154.783C67.718 154.783 68.4447 155.006 69.0474 155.452C69.6487 155.899 69.9647 156.547 69.994 157.396H68.3887C68.358 156.915 68.1434 156.572 67.7447 156.371C67.4767 156.236 67.1447 156.171 66.7487 156.171C66.3074 156.171 65.9567 156.256 65.6927 156.431C65.43 156.604 65.2994 156.846 65.2994 157.158C65.2994 157.443 65.4274 157.656 65.6874 157.796C65.854 157.891 66.2074 158.002 66.7487 158.127L68.1514 158.458C68.766 158.603 69.2274 158.796 69.534 159.039C70.0114 159.414 70.2487 159.958 70.2487 160.671C70.2487 161.402 69.9674 162.008 69.402 162.49C68.838 162.972 68.0394 163.214 67.01 163.214C65.958 163.214 65.13 162.976 64.526 162.502C63.9234 162.026 63.6234 161.372 63.6234 160.54H65.2167Z" fill="white"/>
<path d="M80.0917 155.016H81.9837L79.3104 160.01V163.008H77.6411V160.01L74.8757 155.016H76.8424L78.5037 158.496L80.0917 155.016Z" fill="white"/>
<path d="M92.1607 161.083C92.5487 160.595 92.7433 159.901 92.7433 159.001C92.7433 158.105 92.5487 157.411 92.1607 156.922C91.7713 156.431 91.246 156.186 90.5847 156.186C89.9233 156.186 89.3953 156.431 89.002 156.918C88.6073 157.406 88.41 158.101 88.41 159.001C88.41 159.901 88.6073 160.595 89.002 161.083C89.3953 161.57 89.9233 161.815 90.5847 161.815C91.246 161.815 91.7713 161.57 92.1607 161.083V161.083ZM93.2033 162.297C92.5993 162.919 91.7273 163.23 90.5847 163.23C89.442 163.23 88.57 162.919 87.966 162.297C87.1553 161.535 86.7513 160.437 86.7513 159.001C86.7513 157.537 87.1553 156.438 87.966 155.705C88.57 155.082 89.442 154.771 90.5847 154.771C91.7273 154.771 92.5993 155.082 93.2033 155.705C94.01 156.438 94.4127 157.537 94.4127 159.001C94.4127 160.437 94.01 161.535 93.2033 162.297" fill="white"/>
<path d="M97.9199 159.488V161.62H99.8599C100.207 161.62 100.476 161.572 100.671 161.479C101.02 161.304 101.195 160.972 101.195 160.48C101.195 160.066 101.025 159.78 100.685 159.624C100.496 159.538 100.229 159.492 99.8879 159.488H97.9199ZM97.9199 156.404V158.166H99.8625C100.209 158.166 100.492 158.1 100.708 157.967C100.924 157.836 101.032 157.602 101.032 157.266C101.032 156.894 100.889 156.647 100.603 156.528C100.356 156.446 100.041 156.404 99.6585 156.404H97.9199ZM102.26 155.867C102.504 156.207 102.625 156.614 102.625 157.087C102.625 157.574 102.504 157.967 102.256 158.263C102.117 158.43 101.915 158.582 101.647 158.719C102.055 158.867 102.363 159.102 102.569 159.423C102.777 159.746 102.881 160.135 102.881 160.595C102.881 161.07 102.763 161.494 102.525 161.868C102.375 162.119 102.185 162.328 101.959 162.499C101.704 162.692 101.403 162.827 101.057 162.9C100.709 162.971 100.333 163.008 99.9265 163.008H96.3252V155.016H100.188C101.163 155.03 101.853 155.314 102.26 155.867Z" fill="white"/>
<path d="M106.598 156.404V158.55H108.397C108.753 158.55 109.02 158.508 109.2 158.421C109.516 158.268 109.673 157.969 109.673 157.521C109.673 157.037 109.52 156.71 109.214 156.544C109.044 156.45 108.786 156.404 108.442 156.404H106.598ZM110.05 155.221C110.345 155.348 110.594 155.534 110.798 155.78C110.968 155.982 111.102 156.208 111.2 156.452C111.298 156.698 111.349 156.978 111.349 157.293C111.349 157.672 111.253 158.045 111.061 158.413C110.869 158.78 110.553 159.04 110.113 159.19C110.481 159.338 110.741 159.549 110.896 159.821C111.049 160.096 111.126 160.512 111.126 161.072V161.609C111.126 161.974 111.141 162.221 111.17 162.352C111.214 162.557 111.317 162.709 111.478 162.808V163.008H109.634C109.584 162.83 109.549 162.688 109.526 162.58C109.484 162.356 109.46 162.126 109.457 161.89L109.446 161.149C109.438 160.638 109.35 160.298 109.181 160.129C109.013 159.958 108.694 159.874 108.23 159.874H106.598V163.008H104.966V155.016H108.79C109.336 155.026 109.756 155.096 110.05 155.221Z" fill="white"/>
<path d="M115.734 159.987H117.78L116.771 156.843L115.734 159.987ZM115.844 155.015H117.734L120.562 163.008H118.751L118.223 161.364H115.279L114.738 163.008H112.991L115.844 155.015Z" fill="white"/>
<path d="M123.392 160.54C123.444 160.906 123.546 161.179 123.698 161.359C123.975 161.688 124.448 161.852 125.12 161.852C125.523 161.852 125.85 161.81 126.099 161.723C126.576 161.556 126.814 161.247 126.814 160.795C126.814 160.531 126.698 160.327 126.464 160.182C126.231 160.042 125.862 159.916 125.355 159.808L124.488 159.619C123.639 159.431 123.054 159.227 122.736 159.007C122.198 158.638 121.928 158.062 121.928 157.276C121.928 156.562 122.192 155.966 122.719 155.492C123.246 155.019 124.02 154.783 125.04 154.783C125.894 154.783 126.62 155.006 127.223 155.452C127.824 155.899 128.14 156.547 128.17 157.396H126.564C126.534 156.915 126.319 156.572 125.92 156.371C125.652 156.236 125.32 156.171 124.924 156.171C124.483 156.171 124.132 156.256 123.868 156.431C123.606 156.604 123.475 156.846 123.475 157.158C123.475 157.443 123.603 157.656 123.863 157.796C124.03 157.891 124.383 158.002 124.924 158.127L126.327 158.458C126.942 158.603 127.403 158.796 127.71 159.039C128.187 159.414 128.424 159.958 128.424 160.671C128.424 161.402 128.143 162.008 127.578 162.49C127.014 162.972 126.215 163.214 125.186 163.214C124.134 163.214 123.306 162.976 122.702 162.502C122.099 162.026 121.799 161.372 121.799 160.54H123.392Z" fill="white"/>
<path d="M134.665 155.85C135.307 155.193 136.127 154.864 137.122 154.864C138.453 154.864 139.425 155.305 140.039 156.186C140.379 156.682 140.562 157.178 140.586 157.677H138.917C138.81 157.294 138.674 157.005 138.507 156.81C138.21 156.464 137.769 156.289 137.186 156.289C136.59 156.289 136.121 156.536 135.778 157.025C135.434 157.514 135.262 158.208 135.262 159.104C135.262 160 135.443 160.672 135.805 161.118C136.169 161.565 136.629 161.788 137.189 161.788C137.759 161.788 138.197 161.597 138.498 161.213C138.663 161.006 138.802 160.698 138.911 160.286H140.571C140.427 161.157 140.062 161.866 139.473 162.412C138.885 162.957 138.133 163.23 137.213 163.23C136.075 163.23 135.182 162.862 134.53 162.124C133.879 161.382 133.554 160.368 133.554 159.077C133.554 157.681 133.923 156.605 134.665 155.85Z" fill="white"/>
<path d="M144.055 163.007H142.396V155.015H144.055V163.007Z" fill="white"/>
<path d="M150.903 155.016H152.639L149.914 163.008H148.335L145.634 155.016H147.418L149.152 161.084L150.903 155.016Z" fill="white"/>
<path d="M155.767 163.007H154.108V155.015H155.767V163.007Z" fill="white"/>
<path d="M157.941 155.016H159.61V161.57H163.601V163.008H157.941V155.016Z" fill="white"/>
<path d="M171.247 156.431H167.017V158.127H170.899V159.515H167.017V161.57H171.441V163.008H165.385V155.015H171.247V156.431Z" fill="white"/>
<path d="M174.557 160.54C174.609 160.906 174.71 161.179 174.862 161.359C175.139 161.688 175.613 161.852 176.285 161.852C176.687 161.852 177.014 161.81 177.263 161.723C177.741 161.556 177.978 161.247 177.978 160.795C177.978 160.531 177.862 160.327 177.629 160.182C177.395 160.042 177.026 159.916 176.519 159.808L175.653 159.619C174.803 159.431 174.218 159.227 173.901 159.007C173.362 158.638 173.093 158.062 173.093 157.276C173.093 156.562 173.357 155.966 173.883 155.492C174.41 155.019 175.185 154.783 176.205 154.783C177.058 154.783 177.785 155.006 178.387 155.452C178.989 155.899 179.305 156.547 179.334 157.396H177.729C177.698 156.915 177.483 156.572 177.085 156.371C176.817 156.236 176.485 156.171 176.089 156.171C175.647 156.171 175.297 156.256 175.033 156.431C174.77 156.604 174.639 156.846 174.639 157.158C174.639 157.443 174.767 157.656 175.027 157.796C175.194 157.891 175.547 158.002 176.089 158.127L177.491 158.458C178.106 158.603 178.567 158.796 178.874 159.039C179.351 159.414 179.589 159.958 179.589 160.671C179.589 161.402 179.307 162.008 178.742 162.49C178.178 162.972 177.379 163.214 176.35 163.214C175.298 163.214 174.47 162.976 173.866 162.502C173.263 162.026 172.963 161.372 172.963 160.54H174.557Z" fill="white"/>
<path d="M134.53 39.5613C137.982 43.0333 141.108 46.6733 143.926 50.4693V-1.5041e-06H48.0945V0.145328C53.1331 0.946662 58.1585 1.896 63.1545 3.056C89.9772 9.292 114.732 19.64 134.53 39.5613Z" fill="white"/>
<path d="M61.0891 34.3125C56.8945 30.7712 52.5545 27.5005 48.0945 24.4512V95.8312H97.9025C97.6105 95.3405 97.3878 94.7245 97.2451 93.9218C92.9945 69.3405 79.7611 50.0818 61.0891 34.3125Z" fill="white"/>
<path d="M132.325 95.6836H138.566C138.218 94.4769 137.59 92.3929 136.835 90.3502C135.71 87.2236 134.363 84.2062 134.363 84.2062L129.234 86.2542C129.234 86.2542 130.386 89.1889 131.309 92.1796C131.699 93.4222 132.047 94.6542 132.325 95.6836Z" fill="white"/>
<path d="M125.143 66.901L121.141 69.2597C121.141 69.2597 122.727 72.0077 124.149 74.837C125.601 77.6557 126.869 80.549 126.869 80.549L131.625 78.357C131.625 78.357 130.164 75.4024 128.523 72.5477C126.916 69.6744 125.143 66.901 125.143 66.901Z" fill="white"/>
<path d="M113.446 51.228L110.516 53.596C110.516 53.596 111.012 54.22 111.755 55.1547C112.466 56.1147 113.412 57.396 114.36 58.6773C115.259 59.9867 116.16 61.3013 116.836 62.284C117.48 63.2853 117.91 63.9547 117.91 63.9547L121.551 61.5627C121.551 61.5627 121.078 60.8947 120.364 59.888C119.622 58.904 118.63 57.5933 117.64 56.284C116.604 55.0067 115.57 53.732 114.792 52.7747C113.986 51.848 113.446 51.228 113.446 51.228Z" fill="white"/>
<path d="M99.5891 37.4649L97.6357 39.5969C97.6357 39.5982 98.2304 40.1316 99.0797 40.9822C99.9304 41.8316 101.092 42.9329 102.204 44.0849C103.294 45.2502 104.388 46.4156 105.205 47.2916C105.993 48.1929 106.518 48.7942 106.518 48.7942L109.116 46.4782C109.116 46.4782 108.548 45.8836 107.696 44.9956C106.816 44.1356 105.642 42.9916 104.469 41.8436C103.276 40.7196 102.037 39.6449 101.129 38.8142C100.224 37.9836 99.5891 37.4649 99.5891 37.4649Z" fill="white"/>
<path d="M83.8599 25.9467L82.7306 27.6213C82.7306 27.6213 83.3933 28.0773 84.3893 28.76C85.3826 29.4467 86.6439 30.4453 87.9346 31.4067C89.2346 32.3547 90.4733 33.376 91.3946 34.152C92.3226 34.9187 92.9413 35.4307 92.9413 35.4307L94.6053 33.4267C94.6053 33.4267 93.9506 32.9347 92.9706 32.1947C91.9959 31.4467 90.6879 30.4627 89.3226 29.5547C87.9653 28.64 86.6373 27.6827 85.5973 27.0293C84.5546 26.38 83.8599 25.9467 83.8599 25.9467Z" fill="white"/>
<path d="M66.6919 16.7982L66.1866 17.8302C66.1866 17.8302 69.1039 19.2382 71.8973 20.8649C73.3106 21.6529 74.7266 22.4262 75.7386 23.0929C76.7706 23.7275 77.4546 24.1555 77.4546 24.1555L78.3559 22.6729C78.3559 22.6729 77.6426 22.2742 76.5746 21.6742C75.5199 21.0515 74.0506 20.3289 72.5879 19.6009C69.6919 18.0862 66.6906 16.7982 66.6919 16.7982Z" fill="white"/>
<path d="M48.507 10.0117L48.4163 10.281C48.4163 10.281 48.6083 10.345 48.947 10.457C49.2857 10.565 49.7643 10.7357 50.3283 10.9624C51.467 11.401 52.979 11.9877 54.4937 12.5717C56.019 13.1304 57.5003 13.7944 58.6097 14.2917C59.7243 14.781 60.4643 15.1077 60.4643 15.1077L60.8097 14.3144C60.8097 14.3144 60.0483 14.0184 58.9097 13.5757C57.771 13.1277 56.2563 12.5277 54.7017 12.0357C53.1563 11.5157 51.611 10.997 50.4537 10.6064C49.8763 10.4077 49.391 10.2557 49.0457 10.1664C48.7017 10.0677 48.507 10.0117 48.507 10.0117Z" fill="white"/>
</svg>
