<svg width="210" height="210" viewBox="0 0 210 210" fill="none" xmlns="http://www.w3.org/2000/svg">
<path d="M188.743 86.388C196.279 93.9707 203.103 101.919 209.258 110.207V-3.28441e-06H0.000366211V0.317329C11.0057 2.072 21.975 4.14133 32.8844 6.67599C91.4524 20.2947 145.511 42.8867 188.743 86.388Z" fill="#28AAE1"/>
<path d="M28.3752 74.9284C19.2178 67.1937 9.73915 60.0537 0.000488281 53.3964V209.26H108.764C108.122 208.187 107.635 206.843 107.326 205.091C98.0432 151.419 69.1472 109.363 28.3752 74.9284Z" fill="#28AAE1"/>
<path d="M209.257 110.207C203.103 101.919 196.28 93.9711 188.743 86.3884C145.511 42.8871 91.452 20.2937 32.8853 6.67638C21.976 4.14172 11.0053 2.07105 0 0.317721V53.3964C9.73867 60.0537 19.2173 67.1937 28.3747 74.9284C69.1467 109.363 98.044 151.419 107.327 205.091C107.635 206.843 108.121 208.187 108.764 209.26H209.257V110.207Z" fill="#CDEBF3"/>
<path d="M183.925 208.939H197.552C196.793 206.301 195.423 201.754 193.775 197.294C191.317 190.463 188.381 183.874 188.381 183.874L177.175 188.349C177.175 188.349 179.692 194.757 181.709 201.289C182.56 204.002 183.32 206.69 183.925 208.939Z" fill="#28AAE1"/>
<path d="M168.243 146.088L159.506 151.236C159.506 151.236 162.97 157.24 166.074 163.42C169.242 169.574 172.014 175.891 172.014 175.891L182.399 171.104C182.399 171.104 179.207 164.652 175.626 158.419C172.114 152.144 168.243 146.088 168.243 146.088Z" fill="#28AAE1"/>
<path d="M142.701 111.863L136.305 117.035C136.305 117.035 137.388 118.399 139.012 120.442C140.561 122.535 142.628 125.335 144.697 128.13C146.664 130.991 148.628 133.858 150.107 136.006C151.512 138.194 152.448 139.654 152.448 139.654L160.401 134.434C160.401 134.434 159.365 132.974 157.811 130.777C156.187 128.625 154.02 125.765 151.861 122.903C149.6 120.117 147.34 117.333 145.643 115.243C143.88 113.218 142.701 111.863 142.701 111.863Z" fill="#28AAE1"/>
<path d="M112.445 81.8119L108.177 86.4652C108.177 86.4692 109.479 87.6332 111.331 89.4932C113.189 91.3452 115.725 93.7505 118.15 96.2652C120.534 98.8119 122.918 101.356 124.706 103.271C126.427 105.237 127.577 106.551 127.577 106.551L133.245 101.492C133.245 101.492 132.006 100.197 130.145 98.2572C128.225 96.3785 125.662 93.8785 123.098 91.3732C120.495 88.9199 117.789 86.5705 115.807 84.7559C113.827 82.9439 112.445 81.8119 112.445 81.8119Z" fill="#28AAE1"/>
<path d="M78.0978 56.6621L75.6298 60.3181C75.6298 60.3181 77.0818 61.3128 79.2525 62.8048C81.4205 64.3021 84.1792 66.4848 86.9952 68.5795C89.8352 70.6515 92.5405 72.8848 94.5512 74.5795C96.5765 76.2515 97.9258 77.3715 97.9258 77.3715L101.559 72.9955C101.559 72.9955 100.132 71.9195 97.9912 70.3008C95.8632 68.6701 93.0085 66.5195 90.0232 64.5395C87.0632 62.5395 84.1632 60.4488 81.8912 59.0221C79.6152 57.6061 78.0978 56.6621 78.0978 56.6621Z" fill="#28AAE1"/>
<path d="M40.6089 36.6822L39.5049 38.9396C39.5049 38.9396 45.8755 42.0116 51.9755 45.5636C55.0622 47.2849 58.1555 48.9729 60.3662 50.4262C62.6155 51.8169 64.1115 52.7476 64.1115 52.7476L66.0795 49.5129C66.0795 49.5129 64.5222 48.6409 62.1889 47.3316C59.8862 45.9716 56.6755 44.3956 53.4849 42.8036C47.1622 39.4942 40.6062 36.6849 40.6089 36.6822Z" fill="#28AAE1"/>
<path d="M0.902524 21.864L0.703857 22.4533C0.703857 22.4533 1.12519 22.592 1.86119 22.8386C2.60119 23.0733 3.64652 23.4466 4.87986 23.9413C7.36252 24.8986 10.6665 26.1786 13.9745 27.4546C17.3039 28.6746 20.5399 30.1253 22.9639 31.2093C25.3959 32.2786 27.0119 32.9946 27.0119 32.9946L27.7639 31.2573C27.7639 31.2573 26.1052 30.6133 23.6159 29.6466C21.1305 28.668 17.8225 27.3573 14.4239 26.2826C11.0532 25.1506 7.67986 24.0173 5.15186 23.1666C3.89452 22.728 2.83052 22.3973 2.07719 22.2013C1.32919 21.9853 0.902524 21.864 0.902524 21.864Z" fill="#28AAE1"/>
</svg>
